<svg xmlns="http://www.w3.org/2000/svg" xmlns:xlink="http://www.w3.org/1999/xlink" width="40" zoomAndPan="magnify" viewBox="0 0 30 30.000001" height="40" preserveAspectRatio="xMidYMid meet" version="1.0"><path fill="#ffffff" d="M 14.5625 0.519531 C 14.472656 0.546875 11.960938 1.988281 8.984375 3.714844 C 4.792969 6.148438 3.523438 6.933594 3.359375 7.203125 C 3.15625 7.53125 3.148438 7.804688 3.152344 14.0625 C 3.15625 18.972656 3.191406 20.65625 3.292969 20.894531 C 3.402344 21.152344 4.394531 21.773438 8.914062 24.394531 C 13.394531 26.996094 14.484375 27.585938 14.890625 27.625 C 15.371094 27.671875 15.542969 27.582031 20.917969 24.453125 C 25.707031 21.664062 26.472656 21.183594 26.652344 20.851562 C 26.84375 20.488281 26.855469 20.109375 26.851562 13.886719 C 26.84375 7.84375 26.828125 7.277344 26.660156 7.058594 C 26.550781 6.921875 23.972656 5.378906 20.925781 3.625 C 15.425781 0.464844 15.121094 0.3125 14.5625 0.519531 M 13.738281 5.492188 C 10.898438 5.9375 8.5 7.699219 7.265625 10.261719 C 6.601562 11.636719 6.398438 12.515625 6.398438 14.046875 C 6.398438 15.582031 6.601562 16.460938 7.265625 17.835938 C 7.824219 18.988281 8.589844 19.96875 9.542969 20.746094 C 10.359375 21.414062 11.90625 22.1875 12.96875 22.453125 C 14.007812 22.714844 15.992188 22.714844 17.03125 22.453125 C 18.164062 22.167969 19.664062 21.402344 20.535156 20.671875 C 21.175781 20.128906 22.460938 18.636719 22.460938 18.433594 C 22.460938 18.398438 21.839844 18.003906 21.074219 17.558594 L 19.683594 16.746094 L 19.511719 17.015625 C 18.285156 18.898438 15.835938 19.832031 13.632812 19.257812 C 9.0625 18.066406 8.171875 11.972656 12.203125 9.445312 C 14.421875 8.050781 17.496094 8.585938 19.15625 10.644531 C 19.421875 10.976562 19.679688 11.265625 19.730469 11.285156 C 19.800781 11.3125 21.230469 10.527344 22.214844 9.914062 C 22.519531 9.730469 22.464844 9.601562 21.707031 8.625 C 20.648438 7.277344 18.769531 6.070312 17.078125 5.664062 C 16.164062 5.441406 14.585938 5.359375 13.738281 5.492188 M 22.910156 11.851562 L 22.78125 12.511719 L 21.585938 12.511719 L 21.585938 13.609375 L 22.082031 13.609375 C 22.5625 13.609375 22.574219 13.617188 22.511719 13.910156 C 22.390625 14.460938 22.363281 14.484375 21.972656 14.484375 L 21.585938 14.484375 L 21.585938 15.035156 C 21.585938 15.554688 21.601562 15.585938 21.871094 15.585938 C 22.144531 15.585938 22.152344 15.605469 22.085938 15.996094 C 22.042969 16.222656 21.980469 16.519531 21.949219 16.65625 C 21.894531 16.882812 21.929688 16.902344 22.390625 16.902344 L 22.890625 16.902344 L 23.023438 16.242188 L 23.148438 15.585938 L 24.023438 15.585938 L 23.949219 16.09375 C 23.90625 16.371094 23.847656 16.671875 23.8125 16.757812 C 23.761719 16.882812 23.855469 16.910156 24.285156 16.878906 L 24.816406 16.84375 L 25.042969 15.640625 L 25.617188 15.605469 L 26.191406 15.574219 L 26.191406 14.484375 L 25.742188 14.484375 C 25.292969 14.484375 25.289062 14.480469 25.359375 14.144531 C 25.394531 13.957031 25.425781 13.757812 25.425781 13.703125 C 25.425781 13.652344 25.601562 13.609375 25.8125 13.609375 L 26.191406 13.609375 L 26.191406 13.0625 C 26.191406 12.554688 26.175781 12.511719 25.933594 12.511719 L 25.671875 12.511719 L 25.953125 11.183594 L 25.445312 11.214844 L 24.933594 11.25 L 24.820312 11.851562 L 24.707031 12.457031 L 24.230469 12.488281 C 23.847656 12.519531 23.761719 12.492188 23.8125 12.367188 C 23.847656 12.28125 23.90625 11.984375 23.949219 11.703125 L 24.023438 11.191406 L 23.039062 11.191406 Z M 23.476562 14.046875 L 23.367188 14.484375 L 23.847656 14.484375 C 24.230469 14.484375 24.328125 14.449219 24.328125 14.292969 C 24.328125 14.1875 24.359375 13.992188 24.398438 13.855469 C 24.457031 13.632812 24.429688 13.609375 24.027344 13.609375 C 23.609375 13.609375 23.582031 13.628906 23.476562 14.046875 " fill-opacity="1" fill-rule="evenodd"/></svg>