<svg xmlns="http://www.w3.org/2000/svg" xmlns:xlink="http://www.w3.org/1999/xlink" width="40" zoomAndPan="magnify" viewBox="0 0 30 30.000001" height="40" preserveAspectRatio="xMidYMid meet" version="1.0"><defs><clipPath id="d35c185be5"><path d="M 4 0 L 26 0 L 26 29.03125 L 4 29.03125 Z M 4 0 " clip-rule="nonzero"/></clipPath></defs><g clip-path="url(#d35c185be5)"><path fill="#ffffff" d="M 12.984375 0.0234375 C 11.96875 0.0976562 10.339844 0.367188 9.246094 0.640625 C 8.21875 0.898438 7.007812 1.34375 6.289062 1.730469 C 5.269531 2.28125 4.597656 2.871094 4.261719 3.519531 L 4.113281 3.804688 L 4.113281 25.15625 L 4.285156 25.488281 C 4.429688 25.769531 4.515625 25.882812 4.855469 26.222656 C 5.34375 26.707031 5.832031 27.042969 6.59375 27.417969 C 7.910156 28.0625 9.746094 28.585938 11.625 28.847656 C 12.773438 29.007812 13.1875 29.03125 14.578125 29.03125 C 17.273438 29.03125 18.371094 28.929688 20.28125 28.503906 C 23.132812 27.871094 25.074219 26.792969 25.773438 25.457031 L 25.867188 25.277344 L 25.878906 14.632812 L 25.894531 3.992188 L 25.785156 3.757812 C 25.625 3.417969 25.480469 3.21875 25.128906 2.855469 C 24.757812 2.472656 24.535156 2.296875 24.070312 2.011719 C 22.539062 1.078125 20.210938 0.398438 17.414062 0.0703125 C 17.105469 0.03125 13.378906 -0.0078125 12.984375 0.0234375 M 13.476562 1.636719 C 11.445312 1.734375 9.484375 2.152344 8.328125 2.730469 C 7.898438 2.945312 7.472656 3.308594 7.34375 3.570312 C 6.757812 4.78125 9.351562 5.929688 13.3125 6.210938 C 14.253906 6.277344 16.121094 6.269531 16.90625 6.191406 C 18.3125 6.054688 19.136719 5.917969 20.09375 5.660156 C 22.023438 5.136719 22.988281 4.355469 22.617188 3.617188 C 22.421875 3.234375 22.089844 2.957031 21.476562 2.664062 C 20.421875 2.160156 18.472656 1.75 16.597656 1.632812 C 15.925781 1.59375 14.328125 1.59375 13.476562 1.636719 M 14.628906 12.558594 C 13.894531 12.675781 13.203125 13.074219 12.796875 13.621094 C 12.59375 13.894531 12.382812 14.339844 12.292969 14.679688 C 12.242188 14.878906 12.226562 15.070312 12.226562 15.585938 C 12.226562 16.222656 12.230469 16.25 12.339844 16.558594 C 12.558594 17.183594 12.960938 17.707031 13.464844 18.027344 C 13.804688 18.242188 14.039062 18.335938 14.472656 18.4375 C 14.652344 18.480469 14.84375 18.539062 14.898438 18.570312 C 14.949219 18.601562 15.265625 18.921875 15.601562 19.277344 L 16.207031 19.921875 L 16.9375 19.917969 C 17.339844 19.917969 17.804688 19.90625 17.972656 19.894531 L 18.273438 19.867188 L 17.625 19.308594 C 17.269531 19 16.859375 18.648438 16.71875 18.527344 C 16.574219 18.40625 16.457031 18.289062 16.453125 18.265625 C 16.453125 18.242188 16.570312 18.132812 16.714844 18.023438 C 17.324219 17.570312 17.707031 17.027344 17.882812 16.367188 C 17.96875 16.050781 18 15.214844 17.941406 14.851562 C 17.761719 13.753906 17.007812 12.890625 15.992188 12.625 C 15.664062 12.542969 14.953125 12.503906 14.628906 12.558594 M 9.046875 12.597656 C 8.9375 12.613281 8.699219 12.703125 8.511719 12.792969 C 8.085938 13.003906 7.851562 13.230469 7.671875 13.605469 C 7.542969 13.875 7.542969 13.886719 7.542969 14.335938 C 7.542969 14.941406 7.609375 15.117188 7.976562 15.484375 C 8.210938 15.71875 8.292969 15.769531 8.816406 16.023438 C 9.480469 16.347656 9.679688 16.472656 9.757812 16.621094 C 9.992188 17.078125 9.464844 17.355469 8.71875 17.171875 C 8.550781 17.128906 8.246094 17.011719 8.039062 16.910156 C 7.832031 16.8125 7.648438 16.738281 7.628906 16.75 C 7.59375 16.773438 7.582031 18.070312 7.621094 18.164062 C 7.71875 18.417969 9.523438 18.570312 10.226562 18.382812 C 10.585938 18.289062 11.015625 18.058594 11.234375 17.839844 C 11.882812 17.203125 11.878906 16.125 11.226562 15.519531 C 11 15.308594 10.558594 15.042969 10.195312 14.894531 C 9.867188 14.761719 9.535156 14.5625 9.433594 14.441406 C 9.234375 14.207031 9.367188 13.933594 9.734375 13.808594 C 10.003906 13.71875 10.542969 13.796875 11.113281 14.007812 C 11.277344 14.066406 11.417969 14.117188 11.429688 14.117188 C 11.4375 14.117188 11.445312 13.800781 11.445312 13.414062 L 11.445312 12.714844 L 11.253906 12.671875 C 10.765625 12.5625 9.519531 12.523438 9.046875 12.597656 M 18.882812 15.476562 L 18.882812 18.363281 L 22.621094 18.363281 L 22.621094 17.09375 L 20.625 17.09375 L 20.625 12.59375 L 18.882812 12.59375 Z M 14.652344 14.09375 C 14.429688 14.199219 14.230469 14.425781 14.121094 14.695312 C 14.050781 14.875 14.039062 14.960938 14.039062 15.515625 L 14.039062 16.132812 L 14.164062 16.394531 C 14.378906 16.855469 14.675781 17.042969 15.152344 17.011719 C 15.457031 16.992188 15.585938 16.9375 15.773438 16.742188 C 16.179688 16.324219 16.304688 15.511719 16.070312 14.78125 C 15.960938 14.429688 15.804688 14.207031 15.585938 14.09375 C 15.355469 13.972656 14.914062 13.972656 14.652344 14.09375 " fill-opacity="1" fill-rule="evenodd"/></g></svg>